<svg xmlns="http://www.w3.org/2000/svg" viewBox="0 0 64 64" width="64" height="64">
<ellipse cx="32" cy="54" rx="22" ry="4" fill="#000" opacity=".15"/>
<path d="M8 46h48c0 6-5 9-10 9H18c-5 0-10-3-10-9z" fill="#d9c9a4" stroke="#7d6a42" stroke-width="2.4" stroke-linejoin="round"/>
<path d="M14 49h36M16 52.5h32" stroke="#b7a37a" stroke-width="1.6" stroke-linecap="round"/>
<path d="M10 46c-2-9 3-14 8-14 1-7 7-11 14-11s13 4 14 11c5 0 9 5 8 14z" fill="#fff6dc" stroke="#7d6a42" stroke-width="2.4" stroke-linejoin="round"/>
<g fill="#e8d7a8"><circle cx="20" cy="40" r="2"/><circle cx="29" cy="35" r="2.2"/><circle cx="39" cy="38" r="2"/><circle cx="46" cy="42" r="1.8"/><circle cx="33" cy="28" r="1.8"/><circle cx="24" cy="30" r="1.6"/><circle cx="42" cy="31" r="1.6"/></g>
<path d="M22 27c3-4 7-5 10-5" stroke="#fff" stroke-width="3" stroke-linecap="round" fill="none"/>
</svg>
