<svg xmlns="http://www.w3.org/2000/svg" viewBox="0 0 64 64" width="64" height="64">
<ellipse cx="32" cy="57" rx="23" ry="3.3" fill="#000" opacity=".15"/><g transform="translate(0,2)"><path d="M5 15c9-8 17 8 27 0s20-8 27 0v13c-7-8-17-8-27 0s-18-8-27 0z" fill="#d8484a" stroke="#5b1a1c" stroke-width="2.4" stroke-linejoin="round"/><path d="M5 22c9-8 17 8 27 0s20-8 27 0" stroke="#fbe0cc" stroke-width="3.6" stroke-linecap="round" fill="none"/></g><g transform="translate(0,25)"><path d="M5 15c9-8 17 8 27 0s20-8 27 0v13c-7-8-17-8-27 0s-18-8-27 0z" fill="#d8484a" stroke="#5b1a1c" stroke-width="2.4" stroke-linejoin="round"/><path d="M5 22c9-8 17 8 27 0s20-8 27 0" stroke="#fbe0cc" stroke-width="3.6" stroke-linecap="round" fill="none"/></g>
</svg>
