<svg xmlns="http://www.w3.org/2000/svg" viewBox="0 0 64 64" width="64" height="64">
<ellipse cx="32" cy="57" rx="23" ry="3.3" fill="#000" opacity=".15"/>
<path d="M6 34c0-10 10-17 26-17s26 7 26 17c0 8-10 15-26 15S6 42 6 34z" fill="#f7f3e8" stroke="#6e7480" stroke-width="2.4" stroke-linejoin="round"/>
<path d="M12 30c10-6 28-6 40 0M10 38c12-5 32-5 44 0M16 44c10-3 22-3 32 0" stroke="#d6d4c8" stroke-width="2.6" stroke-linecap="round" fill="none"/>
<g fill="#fff" stroke="#7a8aa0" stroke-width="1.6" stroke-linejoin="round"><rect x="18" y="22" width="6" height="6" transform="rotate(18 21 25)"/><rect x="34" y="20" width="6" height="6" transform="rotate(-12 37 23)"/><rect x="28" y="33" width="6" height="6" transform="rotate(30 31 36)"/><rect x="44" y="30" width="5" height="5" transform="rotate(8 46 32)"/></g>
</svg>
