<svg xmlns="http://www.w3.org/2000/svg" viewBox="0 0 64 64" width="64" height="64">
<ellipse cx="32" cy="57" rx="23" ry="3.3" fill="#000" opacity=".15"/>
<path d="M10 46c0 7 10 10 22 10s22-3 22-10c0-3-4-5-8-6H18c-4 1-8 3-8 6z" fill="#eadfc9" stroke="#7b6a47" stroke-width="2.4" stroke-linejoin="round"/>
<path d="M12 42c0-6 6-10 20-10s20 4 20 10c0 4-8 6-20 6s-20-2-20-6z" fill="#fdf1c4" stroke="#8a7a3a" stroke-width="2.4" stroke-linejoin="round"/>
<path d="M18 33c0-6 6-9 14-9s14 3 14 9c0 3-6 5-14 5s-14-2-14-5z" fill="#fff6d0" stroke="#8a7a3a" stroke-width="2.4"/>
<path d="M23 25c0-5 4-8 9-8s9 3 9 8c-2 3-16 3-18 0z" fill="#fffbe0" stroke="#8a7a3a" stroke-width="2.4" stroke-linejoin="round"/>
<path d="M28 18c1-6 4-9 6-11 0 4 2 6 1 11" fill="#fffbe0" stroke="#8a7a3a" stroke-width="2.4" stroke-linejoin="round"/>
<path d="M22 36c6 2 14 2 20 0" stroke="#f0d98a" stroke-width="2" stroke-linecap="round" fill="none"/>
</svg>
